<mxfile host="app.diagrams.net" modified="2023-09-07T17:32:22.211Z" agent="Mozilla/5.0 (Windows NT 10.0; Win64; x64) AppleWebKit/537.36 (KHTML, like Gecko) Chrome/116.0.0.0 Safari/537.36 Edg/116.0.1938.69" etag="LiYIfxukn4JEOIHxGRL-" version="21.7.2" type="device">
  <diagram name="Страница — 1" id="uMHorBIrega37bvBCAY6">
    <mxGraphModel dx="2510" dy="958" grid="1" gridSize="10" guides="1" tooltips="1" connect="1" arrows="1" fold="1" page="1" pageScale="1" pageWidth="827" pageHeight="1169" math="0" shadow="0">
      <root>
        <mxCell id="0" />
        <mxCell id="1" parent="0" />
        <mxCell id="pqDDeya4w2xwKk0txJkW-4" style="edgeStyle=orthogonalEdgeStyle;rounded=0;orthogonalLoop=1;jettySize=auto;html=1;entryX=0.5;entryY=0;entryDx=0;entryDy=0;" edge="1" parent="1" source="pqDDeya4w2xwKk0txJkW-1" target="pqDDeya4w2xwKk0txJkW-2">
          <mxGeometry relative="1" as="geometry" />
        </mxCell>
        <mxCell id="pqDDeya4w2xwKk0txJkW-5" style="edgeStyle=orthogonalEdgeStyle;rounded=0;orthogonalLoop=1;jettySize=auto;html=1;entryX=0.5;entryY=0;entryDx=0;entryDy=0;" edge="1" parent="1" source="pqDDeya4w2xwKk0txJkW-1" target="pqDDeya4w2xwKk0txJkW-3">
          <mxGeometry relative="1" as="geometry" />
        </mxCell>
        <mxCell id="pqDDeya4w2xwKk0txJkW-1" value="будинок" style="rounded=0;whiteSpace=wrap;html=1;" vertex="1" parent="1">
          <mxGeometry x="354" width="120" height="60" as="geometry" />
        </mxCell>
        <mxCell id="pqDDeya4w2xwKk0txJkW-8" style="edgeStyle=orthogonalEdgeStyle;rounded=0;orthogonalLoop=1;jettySize=auto;html=1;entryX=0.5;entryY=0;entryDx=0;entryDy=0;" edge="1" parent="1" source="pqDDeya4w2xwKk0txJkW-2" target="pqDDeya4w2xwKk0txJkW-6">
          <mxGeometry relative="1" as="geometry" />
        </mxCell>
        <mxCell id="pqDDeya4w2xwKk0txJkW-9" style="edgeStyle=orthogonalEdgeStyle;rounded=0;orthogonalLoop=1;jettySize=auto;html=1;entryX=0.5;entryY=0;entryDx=0;entryDy=0;" edge="1" parent="1" source="pqDDeya4w2xwKk0txJkW-2" target="pqDDeya4w2xwKk0txJkW-7">
          <mxGeometry relative="1" as="geometry" />
        </mxCell>
        <mxCell id="pqDDeya4w2xwKk0txJkW-11" style="edgeStyle=orthogonalEdgeStyle;rounded=0;orthogonalLoop=1;jettySize=auto;html=1;entryX=0.5;entryY=0;entryDx=0;entryDy=0;" edge="1" parent="1" source="pqDDeya4w2xwKk0txJkW-2" target="pqDDeya4w2xwKk0txJkW-10">
          <mxGeometry relative="1" as="geometry" />
        </mxCell>
        <mxCell id="pqDDeya4w2xwKk0txJkW-2" value="житловий будинок" style="rounded=0;whiteSpace=wrap;html=1;" vertex="1" parent="1">
          <mxGeometry x="160" y="80" width="120" height="60" as="geometry" />
        </mxCell>
        <mxCell id="pqDDeya4w2xwKk0txJkW-15" style="edgeStyle=orthogonalEdgeStyle;rounded=0;orthogonalLoop=1;jettySize=auto;html=1;entryX=0.5;entryY=0;entryDx=0;entryDy=0;" edge="1" parent="1" source="pqDDeya4w2xwKk0txJkW-3" target="pqDDeya4w2xwKk0txJkW-12">
          <mxGeometry relative="1" as="geometry" />
        </mxCell>
        <mxCell id="pqDDeya4w2xwKk0txJkW-16" style="edgeStyle=orthogonalEdgeStyle;rounded=0;orthogonalLoop=1;jettySize=auto;html=1;entryX=0.5;entryY=0;entryDx=0;entryDy=0;" edge="1" parent="1" source="pqDDeya4w2xwKk0txJkW-3" target="pqDDeya4w2xwKk0txJkW-13">
          <mxGeometry relative="1" as="geometry" />
        </mxCell>
        <mxCell id="pqDDeya4w2xwKk0txJkW-17" style="edgeStyle=orthogonalEdgeStyle;rounded=0;orthogonalLoop=1;jettySize=auto;html=1;entryX=0.5;entryY=0;entryDx=0;entryDy=0;" edge="1" parent="1" source="pqDDeya4w2xwKk0txJkW-3" target="pqDDeya4w2xwKk0txJkW-14">
          <mxGeometry relative="1" as="geometry" />
        </mxCell>
        <mxCell id="pqDDeya4w2xwKk0txJkW-3" value="комерційна будівля" style="rounded=0;whiteSpace=wrap;html=1;" vertex="1" parent="1">
          <mxGeometry x="560" y="80" width="120" height="60" as="geometry" />
        </mxCell>
        <mxCell id="pqDDeya4w2xwKk0txJkW-33" style="edgeStyle=orthogonalEdgeStyle;rounded=0;orthogonalLoop=1;jettySize=auto;html=1;entryX=0.5;entryY=0;entryDx=0;entryDy=0;" edge="1" parent="1" source="pqDDeya4w2xwKk0txJkW-6" target="pqDDeya4w2xwKk0txJkW-31">
          <mxGeometry relative="1" as="geometry" />
        </mxCell>
        <mxCell id="pqDDeya4w2xwKk0txJkW-34" style="edgeStyle=orthogonalEdgeStyle;rounded=0;orthogonalLoop=1;jettySize=auto;html=1;entryX=0.5;entryY=0;entryDx=0;entryDy=0;" edge="1" parent="1" source="pqDDeya4w2xwKk0txJkW-6" target="pqDDeya4w2xwKk0txJkW-32">
          <mxGeometry relative="1" as="geometry" />
        </mxCell>
        <mxCell id="pqDDeya4w2xwKk0txJkW-6" value="квартира" style="rounded=0;whiteSpace=wrap;html=1;" vertex="1" parent="1">
          <mxGeometry x="40" y="190" width="120" height="60" as="geometry" />
        </mxCell>
        <mxCell id="pqDDeya4w2xwKk0txJkW-7" value="гуртожиток" style="rounded=0;whiteSpace=wrap;html=1;" vertex="1" parent="1">
          <mxGeometry x="200" y="190" width="120" height="60" as="geometry" />
        </mxCell>
        <mxCell id="pqDDeya4w2xwKk0txJkW-10" value="часний дім" style="rounded=0;whiteSpace=wrap;html=1;" vertex="1" parent="1">
          <mxGeometry x="350" y="190" width="120" height="60" as="geometry" />
        </mxCell>
        <mxCell id="pqDDeya4w2xwKk0txJkW-21" style="edgeStyle=orthogonalEdgeStyle;rounded=0;orthogonalLoop=1;jettySize=auto;html=1;entryX=0.5;entryY=0;entryDx=0;entryDy=0;" edge="1" parent="1" source="pqDDeya4w2xwKk0txJkW-12" target="pqDDeya4w2xwKk0txJkW-18">
          <mxGeometry relative="1" as="geometry" />
        </mxCell>
        <mxCell id="pqDDeya4w2xwKk0txJkW-22" style="edgeStyle=orthogonalEdgeStyle;rounded=0;orthogonalLoop=1;jettySize=auto;html=1;entryX=0.5;entryY=0;entryDx=0;entryDy=0;" edge="1" parent="1" source="pqDDeya4w2xwKk0txJkW-12" target="pqDDeya4w2xwKk0txJkW-19">
          <mxGeometry relative="1" as="geometry" />
        </mxCell>
        <mxCell id="pqDDeya4w2xwKk0txJkW-12" value="магазин" style="rounded=0;whiteSpace=wrap;html=1;" vertex="1" parent="1">
          <mxGeometry x="500" y="190" width="120" height="60" as="geometry" />
        </mxCell>
        <mxCell id="pqDDeya4w2xwKk0txJkW-13" value="офіс" style="rounded=0;whiteSpace=wrap;html=1;" vertex="1" parent="1">
          <mxGeometry x="650" y="190" width="120" height="60" as="geometry" />
        </mxCell>
        <mxCell id="pqDDeya4w2xwKk0txJkW-35" style="edgeStyle=orthogonalEdgeStyle;rounded=0;orthogonalLoop=1;jettySize=auto;html=1;entryX=0.5;entryY=0;entryDx=0;entryDy=0;" edge="1" parent="1" source="pqDDeya4w2xwKk0txJkW-14" target="pqDDeya4w2xwKk0txJkW-25">
          <mxGeometry relative="1" as="geometry" />
        </mxCell>
        <mxCell id="pqDDeya4w2xwKk0txJkW-36" style="edgeStyle=orthogonalEdgeStyle;rounded=0;orthogonalLoop=1;jettySize=auto;html=1;entryX=0.5;entryY=0;entryDx=0;entryDy=0;" edge="1" parent="1" source="pqDDeya4w2xwKk0txJkW-14" target="pqDDeya4w2xwKk0txJkW-24">
          <mxGeometry relative="1" as="geometry" />
        </mxCell>
        <mxCell id="pqDDeya4w2xwKk0txJkW-14" value="ресторан" style="rounded=0;whiteSpace=wrap;html=1;" vertex="1" parent="1">
          <mxGeometry x="800" y="190" width="120" height="60" as="geometry" />
        </mxCell>
        <mxCell id="pqDDeya4w2xwKk0txJkW-18" value="магазин одягу" style="rounded=0;whiteSpace=wrap;html=1;" vertex="1" parent="1">
          <mxGeometry x="360" y="290" width="120" height="60" as="geometry" />
        </mxCell>
        <mxCell id="pqDDeya4w2xwKk0txJkW-19" value="продуктовий магазин" style="rounded=0;whiteSpace=wrap;html=1;" vertex="1" parent="1">
          <mxGeometry x="500" y="290" width="120" height="60" as="geometry" />
        </mxCell>
        <mxCell id="pqDDeya4w2xwKk0txJkW-20" value="аптека" style="rounded=0;whiteSpace=wrap;html=1;" vertex="1" parent="1">
          <mxGeometry x="640" y="290" width="120" height="60" as="geometry" />
        </mxCell>
        <mxCell id="pqDDeya4w2xwKk0txJkW-23" style="edgeStyle=orthogonalEdgeStyle;rounded=0;orthogonalLoop=1;jettySize=auto;html=1;entryX=0.5;entryY=0;entryDx=0;entryDy=0;" edge="1" parent="1" source="pqDDeya4w2xwKk0txJkW-12" target="pqDDeya4w2xwKk0txJkW-20">
          <mxGeometry relative="1" as="geometry" />
        </mxCell>
        <mxCell id="pqDDeya4w2xwKk0txJkW-24" value="ресторан вищої кухні" style="rounded=0;whiteSpace=wrap;html=1;" vertex="1" parent="1">
          <mxGeometry x="940" y="280" width="120" height="60" as="geometry" />
        </mxCell>
        <mxCell id="pqDDeya4w2xwKk0txJkW-29" style="edgeStyle=orthogonalEdgeStyle;rounded=0;orthogonalLoop=1;jettySize=auto;html=1;entryX=0.5;entryY=0;entryDx=0;entryDy=0;" edge="1" parent="1" source="pqDDeya4w2xwKk0txJkW-25" target="pqDDeya4w2xwKk0txJkW-27">
          <mxGeometry relative="1" as="geometry" />
        </mxCell>
        <mxCell id="pqDDeya4w2xwKk0txJkW-30" style="edgeStyle=orthogonalEdgeStyle;rounded=0;orthogonalLoop=1;jettySize=auto;html=1;entryX=0.5;entryY=0;entryDx=0;entryDy=0;" edge="1" parent="1" source="pqDDeya4w2xwKk0txJkW-25" target="pqDDeya4w2xwKk0txJkW-26">
          <mxGeometry relative="1" as="geometry" />
        </mxCell>
        <mxCell id="pqDDeya4w2xwKk0txJkW-25" value="фаст фуд" style="rounded=0;whiteSpace=wrap;html=1;" vertex="1" parent="1">
          <mxGeometry x="800" y="280" width="120" height="60" as="geometry" />
        </mxCell>
        <mxCell id="pqDDeya4w2xwKk0txJkW-26" value="мак дональдс" style="rounded=0;whiteSpace=wrap;html=1;" vertex="1" parent="1">
          <mxGeometry x="670" y="380" width="120" height="60" as="geometry" />
        </mxCell>
        <mxCell id="pqDDeya4w2xwKk0txJkW-27" value="кфс" style="rounded=0;whiteSpace=wrap;html=1;" vertex="1" parent="1">
          <mxGeometry x="827" y="380" width="120" height="60" as="geometry" />
        </mxCell>
        <mxCell id="pqDDeya4w2xwKk0txJkW-31" value="однокімнатна квартира" style="rounded=0;whiteSpace=wrap;html=1;" vertex="1" parent="1">
          <mxGeometry x="-60" y="290" width="120" height="60" as="geometry" />
        </mxCell>
        <mxCell id="pqDDeya4w2xwKk0txJkW-32" value="багато кімнатна квартира" style="rounded=0;whiteSpace=wrap;html=1;" vertex="1" parent="1">
          <mxGeometry x="110" y="290" width="120" height="60" as="geometry" />
        </mxCell>
      </root>
    </mxGraphModel>
  </diagram>
</mxfile>
